<svg width="36" height="30" viewBox="0 0 36 30" fill="none" xmlns="http://www.w3.org/2000/svg">
<path d="M14.408 0.443129L0 14.9261L14.408 29.409C14.5381 29.5799 14.7034 29.7209 14.8928 29.8223C15.0821 29.9237 15.291 29.9833 15.5053 29.997C15.7197 30.0106 15.9345 29.9781 16.1351 29.9015C16.3358 29.825 16.5177 29.7062 16.6685 29.5533C16.8193 29.4003 16.9354 29.2168 17.0091 29.015C17.0828 28.8133 17.1122 28.598 17.0955 28.3839C17.0788 28.1698 17.0162 27.9617 16.9121 27.7739C16.808 27.586 16.6647 27.4227 16.492 27.2951L5.71222 16.4254H34.3933C34.7909 16.4254 35.1723 16.2674 35.4534 15.9862C35.7346 15.7051 35.8926 15.3237 35.8926 14.9261C35.8926 14.5285 35.7346 14.1471 35.4534 13.8659C35.1723 13.5848 34.7909 13.4268 34.3933 13.4268L5.71222 13.4268L16.492 2.5571C16.7723 2.27478 16.929 1.89266 16.9276 1.49481C16.9262 1.09696 16.7668 0.71596 16.4845 0.435629C16.2022 0.1553 15.8201 -0.00139809 15.4222 7.62939e-06C15.0243 0.00141335 14.6433 0.160809 14.363 0.443129H14.408Z" fill="#F2F2F2" fill-opacity="0.94902"/>
</svg>
