<svg width="38" height="38" viewBox="0 0 38 38" fill="none" xmlns="http://www.w3.org/2000/svg">
<path d="M19 0C13.8439 0 13.1955 0.02375 11.1696 0.114C9.14375 0.209 7.76388 0.52725 6.555 0.9975C5.28638 1.47327 4.13758 2.22157 3.18963 3.18963C2.22157 4.13759 1.47327 5.28638 0.9975 6.555C0.52725 7.7615 0.206625 9.14375 0.114 11.1625C0.02375 13.1931 0 13.8391 0 19.0024C0 24.1609 0.02375 24.8069 0.114 26.8328C0.209 28.8563 0.52725 30.2361 0.9975 31.445C1.48438 32.6943 2.13275 33.7535 3.18963 34.8104C4.24412 35.8673 5.30338 36.518 6.55263 37.0025C7.76388 37.4728 9.14137 37.7934 11.1649 37.886C13.1931 37.9763 13.8391 38 19 38C24.1609 38 24.8045 37.9763 26.8328 37.886C28.8539 37.791 30.2385 37.4728 31.4474 37.0025C32.7151 36.5264 33.8631 35.7781 34.8104 34.8104C35.8672 33.7535 36.5156 32.6943 37.0025 31.445C37.4704 30.2361 37.791 28.8563 37.886 26.8328C37.9762 24.8069 38 24.1609 38 19C38 13.8391 37.9762 13.1931 37.886 11.1649C37.791 9.14375 37.4704 7.7615 37.0025 6.555C36.5267 5.28638 35.7784 4.13759 34.8104 3.18963C33.8624 2.22157 32.7136 1.47327 31.445 0.9975C30.2337 0.52725 28.8515 0.206625 26.8304 0.114C24.8021 0.02375 24.1585 0 18.9953 0H19ZM17.2971 3.42475H19.0024C24.0754 3.42475 24.6763 3.44138 26.6784 3.534C28.5309 3.61713 29.5379 3.92825 30.2076 4.18713C31.0935 4.5315 31.7276 4.94475 32.3926 5.60975C33.0576 6.27475 33.4685 6.9065 33.8129 7.79475C34.0741 8.46213 34.3829 9.46913 34.466 11.3216C34.5586 13.3238 34.5776 13.9246 34.5776 18.9953C34.5776 24.0659 34.5586 24.6691 34.466 26.6713C34.3829 28.5238 34.0718 29.5284 33.8129 30.1981C33.5061 31.022 33.0202 31.7675 32.3902 32.3808C31.7252 33.0458 31.0935 33.4566 30.2053 33.801C29.5403 34.0623 28.5333 34.371 26.6784 34.4565C24.6763 34.5468 24.0754 34.5681 19.0024 34.5681C13.9294 34.5681 13.3261 34.5468 11.324 34.4565C9.4715 34.371 8.46688 34.0623 7.79712 33.801C6.9726 33.4952 6.2263 33.0101 5.61212 32.3808C4.98102 31.7671 4.49428 31.0207 4.18713 30.1958C3.92825 29.5284 3.61713 28.5214 3.534 26.6689C3.44375 24.6668 3.42475 24.0659 3.42475 18.9905C3.42475 13.9151 3.44375 13.319 3.534 11.3169C3.6195 9.46438 3.92825 8.45738 4.1895 7.78763C4.53388 6.90175 4.94712 6.26763 5.61212 5.60263C6.27712 4.93763 6.90887 4.52675 7.79712 4.18238C8.46688 3.92113 9.4715 3.61238 11.324 3.52688C13.0767 3.44613 13.756 3.42238 17.2971 3.42V3.42475ZM29.1436 6.57875C28.8442 6.57875 28.5477 6.63772 28.2711 6.75231C27.9945 6.86689 27.7431 7.03483 27.5314 7.24655C27.3197 7.45826 27.1518 7.70961 27.0372 7.98623C26.9226 8.26285 26.8636 8.55934 26.8636 8.85875C26.8636 9.15816 26.9226 9.45465 27.0372 9.73127C27.1518 10.0079 27.3197 10.2592 27.5314 10.471C27.7431 10.6827 27.9945 10.8506 28.2711 10.9652C28.5477 11.0798 28.8442 11.1388 29.1436 11.1388C29.7483 11.1388 30.3282 10.8985 30.7558 10.471C31.1834 10.0434 31.4236 9.46344 31.4236 8.85875C31.4236 8.25406 31.1834 7.67413 30.7558 7.24655C30.3282 6.81896 29.7483 6.57875 29.1436 6.57875ZM19.0024 9.2435C17.7082 9.22331 16.4229 9.46078 15.2213 9.94209C14.0198 10.4234 12.926 11.1389 12.0036 12.047C11.0812 12.9551 10.3487 14.0376 9.84875 15.2315C9.34875 16.4254 9.09126 17.7068 9.09126 19.0012C9.09126 20.2956 9.34875 21.577 9.84875 22.7709C10.3487 23.9648 11.0812 25.0473 12.0036 25.9554C12.926 26.8635 14.0198 27.579 15.2213 28.0603C16.4229 28.5416 17.7082 28.7791 19.0024 28.7589C21.5639 28.7189 24.007 27.6733 25.8043 25.8477C27.6016 24.0221 28.609 21.563 28.609 19.0012C28.609 16.4393 27.6016 13.9802 25.8043 12.1547C24.007 10.3291 21.5639 9.28346 19.0024 9.2435ZM19.0024 12.6659C19.8342 12.6659 20.6578 12.8297 21.4263 13.148C22.1948 13.4664 22.8931 13.9329 23.4813 14.5211C24.0695 15.1093 24.536 15.8075 24.8543 16.576C25.1727 17.3445 25.3365 18.1682 25.3365 19C25.3365 19.8318 25.1727 20.6555 24.8543 21.424C24.536 22.1925 24.0695 22.8907 23.4813 23.4789C22.8931 24.0671 22.1948 24.5336 21.4263 24.852C20.6578 25.1703 19.8342 25.3341 19.0024 25.3341C17.3225 25.3341 15.7114 24.6668 14.5235 23.4789C13.3356 22.291 12.6683 20.6799 12.6683 19C12.6683 17.3201 13.3356 15.709 14.5235 14.5211C15.7114 13.3332 17.3225 12.6659 19.0024 12.6659Z" fill="white"/>
</svg>
