<svg width="28" height="22" viewBox="0 0 28 22" fill="none" xmlns="http://www.w3.org/2000/svg">
<path d="M26 0H2C1.46957 0 0.960859 0.231785 0.585786 0.644365C0.210714 1.05694 0 1.61652 0 2.2V19.8C0 20.3835 0.210714 20.9431 0.585786 21.3556C0.960859 21.7682 1.46957 22 2 22H26C26.5304 22 27.0391 21.7682 27.4142 21.3556C27.7893 20.9431 28 20.3835 28 19.8V2.2C28 1.61652 27.7893 1.05694 27.4142 0.644365C27.0391 0.231785 26.5304 0 26 0ZM23.8 2.2L14 9.658L4.2 2.2H23.8ZM2 19.8V3.201L13.43 11.902C13.5974 12.0297 13.7963 12.0982 14 12.0982C14.2037 12.0982 14.4026 12.0297 14.57 11.902L26 3.201V19.8H2Z" fill="#F2F2F2" fill-opacity="0.94902"/>
</svg>
