<svg width="15" height="15" viewBox="0 0 15 15" fill="none" xmlns="http://www.w3.org/2000/svg">
<path d="M7.5 0C6.01664 0 4.56659 0.439867 3.33323 1.26398C2.09986 2.08809 1.13856 3.25943 0.570907 4.62987C0.00324963 6.00032 -0.145275 7.50832 0.144114 8.96318C0.433503 10.418 1.14781 11.7544 2.1967 12.8033C3.2456 13.8522 4.58197 14.5665 6.03682 14.8559C7.49168 15.1453 8.99968 14.9967 10.3701 14.4291C11.7406 13.8614 12.9119 12.9001 13.736 11.6668C14.5601 10.4334 15 8.98336 15 7.5C14.9979 5.51152 14.207 3.60509 12.801 2.19902C11.3949 0.79295 9.48848 0.00209987 7.5 0ZM7.5 13.8462C6.24485 13.8462 5.01789 13.474 3.97427 12.7766C2.93065 12.0793 2.11725 11.0882 1.63692 9.92857C1.1566 8.76896 1.03092 7.49296 1.27579 6.26193C1.52066 5.03089 2.12507 3.90012 3.01259 3.01259C3.90012 2.12507 5.0309 1.52065 6.26193 1.27579C7.49296 1.03092 8.76896 1.15659 9.92857 1.63692C11.0882 2.11724 12.0793 2.93065 12.7766 3.97426C13.474 5.01788 13.8462 6.24485 13.8462 7.5C13.8442 9.18252 13.175 10.7956 11.9853 11.9853C10.7956 13.175 9.18252 13.8442 7.5 13.8462ZM5.19231 7.5C5.19231 7.98434 5.3447 8.45641 5.6279 8.84933C5.91111 9.24225 6.31076 9.5361 6.77025 9.68927C7.22973 9.84243 7.72577 9.84714 8.18808 9.70272C8.65039 9.55831 9.05555 9.27209 9.34616 8.88461C9.43806 8.76221 9.57482 8.68132 9.72636 8.65975C9.8779 8.63818 10.0318 8.67769 10.1542 8.76959C10.2766 8.86149 10.3575 8.99825 10.3791 9.14979C10.4006 9.30133 10.3611 9.45523 10.2692 9.57764C9.83322 10.1587 9.22545 10.5878 8.53202 10.8043C7.83858 11.0208 7.09461 11.0136 6.40548 10.7838C5.71635 10.5539 5.11698 10.1132 4.69227 9.52381C4.26755 8.93447 4.039 8.22644 4.039 7.5C4.039 6.77356 4.26755 6.06553 4.69227 5.47618C5.11698 4.88684 5.71635 4.44605 6.40548 4.21624C7.09461 3.98643 7.83858 3.97925 8.53202 4.19571C9.22545 4.41218 9.83322 4.84132 10.2692 5.42235C10.3147 5.48296 10.3479 5.55194 10.3667 5.62535C10.3856 5.69877 10.3898 5.77517 10.3791 5.8502C10.3684 5.92524 10.343 5.99743 10.3045 6.06267C10.2659 6.12791 10.2148 6.1849 10.1542 6.23041C10.0936 6.27591 10.0246 6.30903 9.95121 6.32788C9.8778 6.34673 9.80139 6.35093 9.72636 6.34025C9.65132 6.32957 9.57913 6.30421 9.51389 6.26563C9.44866 6.22705 9.39166 6.17599 9.34616 6.11538C9.05555 5.72791 8.65039 5.44169 8.18808 5.29728C7.72577 5.15286 7.22973 5.15757 6.77025 5.31073C6.31076 5.46389 5.91111 5.75775 5.6279 6.15067C5.3447 6.54359 5.19231 7.01565 5.19231 7.5Z" fill="#F2F2F2" fill-opacity="0.94902"/>
</svg>
