<svg width="16" height="20" viewBox="0 0 16 20" fill="none" xmlns="http://www.w3.org/2000/svg">
<path d="M7.81733 4.36316C7.13416 4.36316 6.46633 4.56574 5.89829 4.94529C5.33026 5.32484 4.88753 5.86431 4.62609 6.49547C4.36465 7.12664 4.29625 7.82116 4.42953 8.4912C4.56281 9.16124 4.89179 9.77672 5.37486 10.2598C5.85794 10.7429 6.47341 11.0718 7.14345 11.2051C7.8135 11.3384 8.50801 11.27 9.13918 11.0086C9.77035 10.7471 10.3098 10.3044 10.6894 9.73636C11.0689 9.16832 11.2715 8.5005 11.2715 7.81733C11.2715 6.90122 10.9076 6.02264 10.2598 5.37486C9.61201 4.72708 8.73343 4.36316 7.81733 4.36316ZM7.81733 10.1807C7.34989 10.1807 6.89296 10.0421 6.5043 9.7824C6.11565 9.52271 5.81273 9.1536 5.63385 8.72175C5.45497 8.2899 5.40817 7.8147 5.49936 7.35625C5.59055 6.8978 5.81564 6.47669 6.14617 6.14617C6.47669 5.81564 6.8978 5.59055 7.35625 5.49936C7.8147 5.40817 8.2899 5.45497 8.72175 5.63385C9.1536 5.81273 9.52271 6.11565 9.7824 6.5043C10.0421 6.89296 10.1807 7.34989 10.1807 7.81733C10.1807 8.44413 9.93171 9.04527 9.48849 9.48849C9.04527 9.93171 8.44413 10.1807 7.81733 10.1807ZM7.81733 0C5.74478 0.00240574 3.75781 0.826787 2.2923 2.2923C0.826787 3.75781 0.00240574 5.74478 0 7.81733C0 10.627 1.30349 13.6112 3.76959 16.4473C4.88265 17.7336 6.13537 18.8922 7.50463 19.9015C7.59629 19.9656 7.70546 20 7.81733 20C7.9292 20 8.03836 19.9656 8.13002 19.9015C9.49928 18.8922 10.752 17.7336 11.8651 16.4473C14.3312 13.6112 15.6347 10.6297 15.6347 7.81733C15.6322 5.74478 14.8079 3.75781 13.3424 2.2923C11.8768 0.826787 9.88987 0.00240574 7.81733 0ZM7.81733 18.7716C6.45384 17.719 1.09079 13.2367 1.09079 7.81733C1.09079 6.03334 1.79948 4.32242 3.06095 3.06095C4.32242 1.79948 6.03334 1.09079 7.81733 1.09079C9.60132 1.09079 11.3122 1.79948 12.5737 3.06095C13.8352 4.32242 14.5439 6.03334 14.5439 7.81733C14.5439 13.2367 9.18081 17.719 7.81733 18.7716Z" fill="#F2F2F2" fill-opacity="0.94902"/>
</svg>
