<svg width="10" height="20" viewBox="0 0 10 20" fill="none" xmlns="http://www.w3.org/2000/svg">
<path d="M0.262837 1.55248L7.94738 9.36034C8.11592 9.5307 8.21045 9.76067 8.21045 10.0003C8.21045 10.2399 8.11592 10.4699 7.94738 10.6403L0.264505 18.4481C0.096055 18.6196 0.00166702 18.8503 0.00166702 19.0906C0.00166702 19.3309 0.096055 19.5616 0.264505 19.7331C0.346795 19.8175 0.445149 19.8846 0.55377 19.9304C0.662392 19.9762 0.779084 19.9998 0.896968 19.9998C1.01485 19.9998 1.13154 19.9762 1.24016 19.9304C1.34879 19.8846 1.44714 19.8175 1.52943 19.7331L9.2123 11.9269C9.71715 11.4127 10 10.7209 10 10.0003C10 9.27972 9.71715 8.58793 9.2123 8.07375L1.52943 0.267552C1.44711 0.182888 1.34866 0.115588 1.23988 0.0696328C1.13111 0.0236776 1.01422 0 0.896133 0C0.778049 0 0.661163 0.0236776 0.552388 0.0696328C0.443612 0.115588 0.345154 0.182888 0.262837 0.267552C0.094388 0.438968 0 0.669684 0 0.910014C0 1.15034 0.094388 1.38106 0.262837 1.55248Z" fill="#F2F2F2" fill-opacity="0.94902"/>
</svg>
